:SAMPLES-PER-SECOND 30
:FULLY-SPECIFIED
:DEGREES
196
root  -42.4427 39.0872 30.7826 172.324 9.22978 175.684
RightUpLeg  -16.3868 -23.835 -12.9663
RightLeg  46.7005 29.5012 29.049
RightFoot  -5.90562 -1.57302 31.5028
RightToes  -6.98493e-010 0 -3.6325e-017
Spine  12.3808 0.426599 -3.55257
Spine1  13.508 0.214423 -2.28304
HEad  -4.70193 -4.06726 3.66353
LeftShoulder1  0.80811 0.81937 -23.837
LeftArm  -17.1593 2.96915 -34.2223
LeftForeArm  39.6526 -77.6356 -64.6027
LeftHand  -0.055668 2.58064 1.77574
RightShoulder  -0.0813634 -3.74727 23.8818
RightArm  -4.21843 25.7545 44.5054
RightForeArm  1.77901 68.5412 31.0325
RightHand  0.0610429 2.11919 0.756889
LeftUpLeg  -6.98385 5.237 -0.455856
LeftLeg  24.2173 -2.93984 -1.05408
LeftFoot  -10.9585 0.0699675 -1.13415
LeftToes  7.91257e-010 -1.64976e-010 -3.02228e-011
197
root  -41.9504 39.1464 30.8969 172.096 9.59595 176.3
RightUpLeg  -16.4043 -22.1645 -14.7676
RightLeg  44.0615 24.4552 23.0991
RightFoot  -6.27624 -1.31871 28.3161
RightToes  -6.98493e-010 0 -3.6325e-017
Spine  13.0669 0.588748 -3.22585
Spine1  13.1738 0.26627 -1.88188
HEad  -4.87988 -5.05897 3.29579
LeftShoulder1  0.764135 1.02186 -24.5415
LeftArm  -17.7945 1.81523 -34.9934
LeftForeArm  35.9316 -77.1386 -59.7217
LeftHand  -0.0306558 2.32431 0.692762
RightShoulder  -0.00261621 -3.48557 23.506
RightArm  -4.04105 27.2065 45.2635
RightForeArm  -1.70273 66.5024 27.8735
RightHand  0.00749389 1.93154 -0.0498735
LeftUpLeg  -6.30044 5.1076 1.16553
LeftLeg  23.5979 -3.05608 -1.02806
LeftFoot  -10.9606 0.0743865 -2.50475
LeftToes  7.91257e-010 -1.64976e-010 -3.02228e-011
198
root  -41.4186 39.2615 30.9765 172.572 9.56622 176.984
RightUpLeg  -15.8301 -20.3989 -16.7476
RightLeg  38.6168 17.9429 14.5877
RightFoot  -5.30031 -1.23068 22.5449
RightToes  -6.98493e-010 0 -3.6325e-017
Spine  12.8776 0.439088 -2.20763
Spine1  13.0712 0.294878 -2.00996
HEad  -5.29298 -6.5121 3.27196
LeftShoulder1  0.77411 1.01725 -24.9076
LeftArm  -17.7496 1.20114 -35.0647
LeftForeArm  34.5413 -76.9415 -58.2226
LeftHand  -0.0598017 2.25563 1.80411
RightShoulder  0.0605319 -3.27293 23.2951
RightArm  -4.77862 27.6355 45.9755
RightForeArm  -2.69685 65.3841 26.3548
RightHand  0.00713849 2.33724 -0.0739715
LeftUpLeg  -6.07397 4.58202 2.69746
LeftLeg  22.3497 -3.12621 -0.885372
LeftFoot  -10.4206 0.0910319 -3.50737
LeftToes  7.91257e-010 -1.64976e-010 -3.02228e-011
199
root  -40.8499 39.4172 31.0273 173.18 9.30791 177.655
RightUpLeg  -14.7172 -17.4022 -18.7058
RightLeg  32.9727 12.8442 8.621
RightFoot  -4.2021 -0.929547 14.2759
RightToes  -6.98493e-010 0 -3.6325e-017
Spine  12.661 0.329107 -1.29937
Spine1  12.8276 0.283416 -1.64088
HEad  -5.75629 -7.66699 3.76419
LeftShoulder1  0.795271 0.9261 -24.6135
LeftArm  -17.6142 0.825669 -35.4528
LeftForeArm  33.124 -76.7037 -56.4356
LeftHand  -0.0654231 1.95583 1.8872
RightShoulder  0.0324325 -3.37021 23.9648
RightArm  -4.82588 28.781 45.5947
RightForeArm  -4.65397 64.0143 24.724
RightHand  -0.0371363 2.79174 -0.746357
LeftUpLeg  -5.67536 4.5027 4.30054
LeftLeg  20.4852 -3.79024 -0.967884
LeftFoot  -9.52911 0.126677 -4.39634
LeftToes  7.91257e-010 -1.64976e-010 -3.02228e-011
200
root  -40.2506 39.4476 31.0629 173.79 9.37991 177.63
RightUpLeg  -13.5403 -13.0461 -21.1011
RightLeg  27.1455 8.88605 4.67739
RightFoot  -4.35422 -0.656527 10.2046
RightToes  -6.98493e-010 0 -3.6325e-017
Spine  12.0499 0.340772 -0.697424
Spine1  13.0309 0.471856 -1.7247
HEad  -6.31602 -9.24618 4.16323
LeftShoulder1  0.759898 1.0481 -24.7107
LeftArm  -17.4885 0.0466997 -35.5929
LeftForeArm  32.1375 -76.537 -55.3189
LeftHand  -0.0568654 2.08329 1.62204
RightShoulder  0.0288398 -3.38111 23.6391
RightArm  -4.98277 29.0783 45.8819
RightForeArm  -5.1205 63.6584 24.3406
RightHand  -0.0137742 2.95109 -0.422682
LeftUpLeg  -5.67548 4.99375 5.33446
LeftLeg  19.3664 -4.44014 -1.13515
LeftFoot  -9.01117 0.161091 -5.28231
LeftToes  7.91257e-010 -1.64976e-010 -3.02228e-011
201
root  -39.5593 39.3608 31.0719 173.903 9.58066 177.363
RightUpLeg  -11.8085 -9.76669 -23.5374
RightLeg  21.5547 6.67753 2.72345
RightFoot  -5.24288 -0.479226 8.34028
RightToes  -6.98493e-010 0 -3.6325e-017
Spine  12.0362 0.494205 0.53524
Spine1  12.8571 1.19446 -3.10609
HEad  -6.86447 -11.4747 4.31583
LeftShoulder1  0.80719 0.872985 -24.4284
LeftArm  -17.2764 -0.763198 -36.1198
LeftForeArm  30.6137 -76.2742 -53.6776
LeftHand  -0.0837839 1.96099 2.53755
RightShoulder  -0.0134134 -3.52222 23.7027
RightArm  -5.6043 28.7693 45.4814
RightForeArm  -4.77854 63.6564 24.3035
RightHand  0.0283548 3.31209 0.138194
LeftUpLeg  -5.58887 5.06363 6.28363
LeftLeg  19.265 -4.62706 -1.23915
LeftFoot  -8.99563 0.179869 -6.15081
LeftToes  7.91257e-010 -1.64976e-010 -3.02228e-011
202
root  -38.8638 39.2149 31.087 174.086 9.31511 176.836
RightUpLeg  -10.2978 -7.66343 -25.7444
RightLeg  16.7228 4.41514 1.12197
RightFoot  -6.16166 -0.406435 8.03312
RightToes  -6.98493e-010 0 -3.6325e-017
Spine  12.1158 0.282202 1.36185
Spine1  12.8048 1.36885 -3.91904
HEad  -7.65904 -12.5445 4.54229
LeftShoulder1  0.759003 1.00033 -24.0536
LeftArm  -17.3265 -1.25001 -36.6539
LeftForeArm  30.8703 -76.2808 -53.6337
LeftHand  -0.0752313 1.90832 2.20636
RightShoulder  0.0326076 -3.36906 23.7699
RightArm  -6.14008 28.6774 45.1947
RightForeArm  -4.56242 63.9304 24.62
RightHand  0.00788967 2.85397 -0.104882
LeftUpLeg  -5.95671 3.45291 6.73283
LeftLeg  19.5585 -3.71564 -1.02999
LeftFoot  -9.03672 0.19455 -6.98418
LeftToes  7.91257e-010 -1.64976e-010 -3.02228e-011
203
root  -38.0546 39.0056 31.1104 174.053 9.17297 176.207
RightUpLeg  -9.25189 -8.50362 -26.9678
RightLeg  13.5945 3.90622 -0.377273
RightFoot  -7.17063 -0.304719 7.01746
RightToes  -6.98493e-010 0 -3.6325e-017
Spine  12.538 0.344374 1.87451
Spine1  12.7272 1.56752 -3.92402
HEad  -8.21621 -13.4361 4.77522
LeftShoulder1  0.81514 0.83668 -24.3177
LeftArm  -17.5893 -1.37744 -36.9615
LeftForeArm  32.8249 -76.5777 -55.3762
LeftHand  -0.0698697 2.15643 2.15467
RightShoulder  0.0461837 -3.32138 23.3924
RightArm  -6.99821 28.4091 44.9383
RightForeArm  -3.86622 64.5365 25.3174
RightHand  -0.010216 2.92916 -0.364077
LeftUpLeg  -6.21576 2.92322 7.45318
LeftLeg  20.1601 -3.73158 -1.19115
LeftFoot  -9.14714 0.205105 -7.83555
LeftToes  7.91257e-010 -1.64976e-010 -3.02228e-011
204
root  -37.1451 38.7645 31.1278 174.224 9.46347 175.602
RightUpLeg  -9.04433 -10.3807 -27.0926
RightLeg  11.8767 3.4567 -1.85391
RightFoot  -8.06421 -0.217277 5.65286
RightToes  -6.98493e-010 0 -3.6325e-017
Spine  12.8444 0.500045 1.94182
Spine1  12.7182 1.66333 -3.45818
HEad  -9.54276 -13.8108 4.29232
LeftShoulder1  0.78502 0.974321 -24.7973
LeftArm  -17.7776 -1.39034 -36.9943
LeftForeArm  34.077 -76.7903 -56.845
LeftHand  -0.0683105 2.12225 2.12498
RightShoulder  0.0926708 -3.16161 22.9275
RightArm  -7.59646 28.6815 44.7374
RightForeArm  -3.14745 64.9626 25.8083
RightHand  0.000743406 2.84944 -0.199626
LeftUpLeg  -6.486 3.29385 8.45291
LeftLeg  20.637 -4.18233 -1.40693
LeftFoot  -9.14727 0.221 -8.69153
LeftToes  7.91257e-010 -1.64976e-010 -3.02228e-011
205
root  -36.129 38.4644 31.1582 174.643 9.56386 174.696
RightUpLeg  -9.50007 -11.7624 -27.2667
RightLeg  11.9742 2.14177 -2.15902
RightFoot  -8.46716 -0.165499 4.59763
RightToes  -6.98493e-010 0 -3.6325e-017
Spine  12.802 0.349166 2.27849
Spine1  13.0379 1.73581 -3.92521
HEad  -10.8795 -13.9335 4.75049
LeftShoulder1  0.74094 1.10547 -24.6759
LeftArm  -18.4054 -1.05086 -37.663
LeftForeArm  35.3292 -76.9506 -57.903
LeftHand  -0.0664418 2.07982 1.98255
RightShoulder  0.0537467 -3.29051 22.5625
RightArm  -7.90628 29.1146 45.3379
RightForeArm  -2.72484 65.2907 26.215
RightHand  -0.0314482 3.28483 -0.655683
LeftUpLeg  -7.05701 3.23334 9.22454
LeftLeg  20.9844 -4.14848 -1.42341
LeftFoot  -9.15662 0.246266 -10.007
LeftToes  7.91257e-010 -1.64976e-010 -3.02228e-011
206
root  -35.0066 38.1845 31.1919 175.1 9.46492 174.083
RightUpLeg  -10.3381 -11.4082 -27.0524
RightLeg  13.5867 0.514663 -1.84336
RightFoot  -6.59312 -0.42312 8.12409
RightToes  -6.98493e-010 0 -3.6325e-017
Spine  12.9058 0.077979 2.54799
Spine1  13.3721 1.37738 -3.35151
HEad  -12.2372 -13.1558 4.46844
LeftShoulder1  0.678991 1.36193 -25.479
LeftArm  -18.593 -0.847203 -37.076
LeftForeArm  35.7977 -77.0673 -58.9768
LeftHand  -0.0743162 1.75307 2.08213
RightShoulder  0.0904749 -3.15662 21.7503
RightArm  -8.18462 29.7257 46.051
RightForeArm  -1.30117 65.6179 26.5169
RightHand  -0.000337049 2.4434 -0.206334
LeftUpLeg  -7.4247 2.65346 10.3871
LeftLeg  20.7825 -4.02384 -1.35647
LeftFoot  -8.62098 0.316757 -11.1369
LeftToes  7.91257e-010 -1.64976e-010 -3.02228e-011
207
root  -33.8206 37.8792 31.2851 175.309 9.48473 173.747
RightUpLeg  -12.3548 -11.3331 -26.846
RightLeg  16.6901 0.892668 -0.393246
RightFoot  -1.43918 -1.14292 13.3371
RightToes  -6.98493e-010 0 -3.6325e-017
Spine  14.0837 -0.382707 3.60541
Spine1  12.9543 1.17068 -3.82621
HEad  -14.1839 -12.5228 3.46047
LeftShoulder1  0.749953 1.1489 -25.6472
LeftArm  -19.359 0.149241 -37.0413
LeftForeArm  36.7454 -77.2067 -60.1375
LeftHand  -0.107314 1.59631 3.08071
RightShoulder  0.0497426 -3.3015 22.0008
RightArm  -7.77155 31.0395 45.8596
RightForeArm  -1.37997 65.7738 26.7531
RightHand  -0.00211963 2.41784 -0.240237
LeftUpLeg  -7.46673 1.84866 11.9713
LeftLeg  20.4326 -3.54147 -1.12859
LeftFoot  -7.89609 0.423732 -12.4798
LeftToes  7.91257e-010 -1.64976e-010 -3.02228e-011
208
root  -32.6289 37.6455 31.3998 176.235 9.73445 174.473
RightUpLeg  -15.9032 -13.0282 -24.3683
RightLeg  21.6586 3.27614 1.27019
RightFoot  0.785407 -1.28541 12.0815
RightToes  -6.98493e-010 0 -3.6325e-017
Spine  15.0639 -1.17698 6.34075
Spine1  12.3062 0.955052 -4.84015
HEad  -15.9818 -11.6967 2.33656
LeftShoulder1  0.802762 0.972223 -25.5153
LeftArm  -20.5568 1.71554 -37.6958
LeftForeArm  38.2674 -77.3632 -61.2884
LeftHand  -0.0929533 1.76242 2.72073
RightShoulder  0.100742 -3.11485 21.279
RightArm  -7.57681 32.1834 45.8549
RightForeArm  -1.27662 65.8849 26.9049
RightHand  0.0323548 2.89167 0.216776
LeftUpLeg  -7.75075 2.16643 14.8354
LeftLeg  19.4519 -3.93648 -1.21679
LeftFoot  -6.81489 0.596574 -13.9093
LeftToes  7.91257e-010 -1.64976e-010 -3.02228e-011
209
root  -31.4092 37.5368 31.4787 176.978 9.87413 175.059
RightUpLeg  -18.6645 -15.0125 -21.6362
RightLeg  26.1856 4.51099 2.18167
RightFoot  -1.17123 -0.964012 10.699
RightToes  -6.98493e-010 0 -3.6325e-017
Spine  15.5183 -1.72717 7.93519
Spine1  12.446 0.52698 -4.44268
HEad  -17.0945 -10.1679 1.3432
LeftShoulder1  0.859177 0.771342 -25.2326
LeftArm  -21.6397 3.07548 -38.1914
LeftForeArm  40.413 -77.5775 -63.0133
LeftHand  -0.0962375 1.77455 2.861
RightShoulder  0.0645348 -3.24498 21.431
RightArm  -6.57269 34.1805 45.7672
RightForeArm  -1.8656 66.0768 27.2617
RightHand  -0.03551 2.03646 -0.711042
LeftUpLeg  -7.24847 2.4718 17.2318
LeftLeg  17.1656 -3.37235 -0.77961
LeftFoot  -4.4168 0.88145 -14.1422
LeftToes  7.91257e-010 -1.64976e-010 -3.02228e-011
210
root  -30.195 37.5625 31.6151 177.581 9.20427 175.051
RightUpLeg  -20.2905 -16.8016 -19.5832
RightLeg  29.1088 4.92381 2.72631
RightFoot  -3.03711 -0.680292 9.0703
RightToes  -6.98493e-010 0 -3.6325e-017
Spine  16.3465 -2.2617 7.57242
Spine1  12.2096 -0.550878 -2.69071
HEad  -18.0393 -8.6241 0.974454
LeftShoulder1  0.781589 1.0306 -25.3906
LeftArm  -22.5093 3.58377 -38.6663
LeftForeArm  40.4687 -77.6013 -63.382
LeftHand  -0.120642 2.1663 4.01973
RightShoulder  0.144603 -2.94047 20.3395
RightArm  -6.47869 35.0235 46.3121
RightForeArm  -1.51348 66.4302 27.7659
RightHand  -0.0575004 2.57984 -1.04147
LeftUpLeg  -7.63605 1.84553 18.0835
LeftLeg  15.6245 0.195898 0.744737
LeftFoot  0.0738346 0.998536 -10.2855
LeftToes  7.91257e-010 -1.64976e-010 -3.02228e-011
